<?xml version="1.0" encoding="utf-8"?>
<!-- Generator: Adobe Illustrator 19.0.0, SVG Export Plug-In . SVG Version: 6.00 Build 0)  -->
<svg version="1.1" id="Layer_1" xmlns="http://www.w3.org/2000/svg" xmlns:xlink="http://www.w3.org/1999/xlink" x="0px" y="0px"
	 viewBox="0 0 250 250" style="enable-background:new 0 0 250 250;" xml:space="preserve">
<style type="text/css">
	.st0{fill:#EC1B86;}
	.st1{fill:#3F91C4;}
	.st2{fill:#FFFFFF;}
	.st3{enable-background:new    ;}
	.st4{fill:#2C3E50;}
</style>
<g id="XMLID_2_">
	<g id="_x31_CZxeM.tif_36_">
		<g id="XMLID_9_">
			<path id="XMLID_10_" class="st0" d="M184.9,98.5c-12.1,0-23.8,0-36.2,0c0,7.1-0.4,13.9,0.2,20.7c0.3,4-1.6,6.1-6.7,7.8
				c-7.7,2.6-15,5.7-23.1,8.9c0-36.2,0-72,0-108.4c9.7,3.8,18.9,7.3,27.9,11.1c1.1,0.5,1.6,2.2,1.6,3.4c0.2,6.3,0.1,12.7,0.1,19
				c0,1.3,0,2.5,0,4.1c12.4,0,24,0,36.1,0C184.9,76.2,184.9,87,184.9,98.5z"/>
		</g>
	</g>
	<g id="_x31_CZxeM.tif_35_">
		<g id="XMLID_7_">
			<path id="XMLID_8_" class="st1" d="M65.1,91.5c9.9,0,19.5,0,29.6,0c0,5.9,0.3,11.4-0.1,17c-0.3,3.3,1.3,5,5.5,6.4
				c6.3,2.1,12.3,4.7,19,7.3c0-29.7,0-59.1,0-88.9c-7.9,3.1-15.5,6-22.9,9.1c-0.9,0.4-1.3,1.8-1.4,2.7c-0.1,5.2-0.1,10.4-0.1,15.6
				c0,1,0,2,0,3.3c-10.1,0-19.7,0-29.6,0C65.1,73.2,65.1,82.1,65.1,91.5z"/>
		</g>
	</g>
	<g id="MbM4d1_18_">
		<g id="XMLID_3_">
			<path id="XMLID_6_" class="st2" d="M83,132.5c10.2-0.9,20.5,1.9,30.2-2.7c9.5-4.6,16.5-11,17.6-21.8c0.7-6.5,0.4-13.1,1.2-19.6
				c0.5-3.8,2-7.5,3.3-11.2c0.5-1.5,1.6-3.2-0.4-4.1c-1.2-0.6-3.3-1-4.3-0.4c-1.8,1.1-3.8,2.8-4.5,4.7c-2.2,6-3.7,12.2-5.7,18.2
				c-0.5,1.5-1.8,3.6-3.1,3.9c-2.2,0.4-3.4-1.7-4-3.8c-1.9-6.5-0.4-12.9,0.3-19.3c1.4-12.3,9.6-20.2,19.1-27.1
				c1.3-1,2.7-2.2,3.5-3.6c0.5-0.8,0.4-2.3-0.1-3.1c-0.4-0.6-1.9-0.9-2.8-0.7c-1.2,0.2-2.4,0.9-3.5,1.5
				c-8.5,4.3-15.7,10.2-21.7,17.4c-2.1,2.5-3.2,5.9-4.1,9.1c-5,16.4-9.5,33.1-14.6,49.7C88.1,124,85.2,128.1,83,132.5z"/>
			<path id="XMLID_5_" class="st2" d="M115.8,74.6c7.7-3.1,15.3-6.2,22.9-9.3c1-0.4,2.2-0.9,2.6-1.7c0.6-1.3,0.6-2.9,0.9-4.4
				c-1.3-0.1-2.7-0.6-3.8-0.3c-6.1,2-12.2,4.2-18.2,6.4c-0.8,0.3-1.7,1-2.1,1.8c-1.2,2.3-2.1,4.6-3.1,6.9
				C115.3,74.3,115.5,74.4,115.8,74.6z"/>
			<path id="XMLID_4_" class="st2" d="M121.2,63.1c3.9-1.6,7.8-3.2,11.7-4.9c2.5-1.1,5.1-2.3,7.3-3.9c1.8-1.3,3.2-3.2,4.4-5.1
				c0.3-0.5-0.3-2.1-1-2.7c-0.4-0.4-1.8-0.3-2.5,0c-8.3,3.3-14.5,9.2-20.4,15.5C120.8,62.4,121,62.7,121.2,63.1z"/>
		</g>
	</g>
</g>
<g id="XMLID_1_" class="st3">
	<path class="st4" d="M62,207.6v-17.1H41.2v17.1h-8v-42.4h8v17.9H62v-17.9h7.9v42.4H62z"/>
	<path class="st4" d="M83.2,195.2c0.5,3.7,3.7,6.4,8.9,6.4c2.7,0,6.3-1,8-2.8l4.7,4.7c-3.1,3.3-8.3,4.8-12.8,4.8
		c-10.3,0-16.4-6.4-16.4-15.9c0-9.1,6.2-15.6,15.9-15.6c10,0,16.2,6.2,15.1,18.5H83.2z M99.4,189.1c-0.5-3.9-3.5-5.8-7.7-5.8
		c-4,0-7.3,1.9-8.4,5.8H99.4z"/>
	<path class="st4" d="M135.8,177.7h7.1v29.8h-7l-0.4-4.4c-1.7,3.5-6.4,5.2-9.7,5.3c-8.8,0.1-15.4-5.4-15.4-15.9
		c0-10.3,6.8-15.7,15.6-15.6c4,0,7.8,1.9,9.5,4.8L135.8,177.7z M117.9,192.6c0,5.7,3.9,9.1,8.8,9.1c11.6,0,11.6-18.1,0-18.1
		C121.9,183.5,117.9,186.9,117.9,192.6z"/>
	<path class="st4" d="M156.5,165.2v42.3h-7.3v-42.3H156.5z"/>
	<path class="st4" d="M173.4,169.3v8.5h8.2v6.4h-8.3V197c0,2.8,1.6,4.2,3.9,4.2c1.2,0,2.5-0.4,3.6-0.9l2.1,6.3
		c-2.1,0.8-3.9,1.2-6.1,1.3c-6.5,0.2-10.7-3.4-10.7-10.9v-12.9h-5.6v-6.4h5.6V170L173.4,169.3z"/>
	<path class="st4" d="M194.5,165.1v16.6c2.7-3.4,5.9-4.5,9.3-4.5c8.5,0,12.2,5.7,12.2,14.5v15.7h-7.4v-15.7c0-5.4-2.8-7.7-6.8-7.7
		c-4.4,0-7.4,3.7-7.4,8.2v15.3h-7.4v-42.4H194.5z"/>
</g>
</svg>
