<?xml version="1.0" encoding="utf-8"?>
<!-- Generator: Adobe Illustrator 19.0.0, SVG Export Plug-In . SVG Version: 6.00 Build 0)  -->
<svg version="1.1" id="Layer_1" xmlns="http://www.w3.org/2000/svg" xmlns:xlink="http://www.w3.org/1999/xlink" x="0px" y="0px"
	 viewBox="-92 94 64 64" style="enable-background:new -92 94 64 64;" xml:space="preserve">
<style type="text/css">
	.st0{fill:#EC1B86;}
	.st1{fill:#3F91C4;}
	.st2{fill:#FFFFFF;}
</style>
<g id="XMLID_2_">
	<g id="_x31_CZxeM.tif_36_">
		<g id="XMLID_9_">
			<path id="XMLID_10_" class="st0" d="M-28,134c-5.7,0-11.3,0-17.2,0c0,3.4-0.2,6.6,0.1,9.8c0.1,1.9-0.8,2.9-3.2,3.7
				c-3.7,1.2-7.1,2.7-11,4.2c0-17.2,0-34.1,0-51.4c4.6,1.8,9,3.5,13.2,5.3c0.5,0.2,0.8,1,0.8,1.6c0.1,3,0,6,0,9c0,0.6,0,1.2,0,1.9
				c5.9,0,11.4,0,17.1,0C-28,123.4-28,128.5-28,134z"/>
		</g>
	</g>
	<g id="_x31_CZxeM.tif_35_">
		<g id="XMLID_7_">
			<path id="XMLID_8_" class="st1" d="M-84.8,130.6c4.7,0,9.2,0,14,0c0,2.8,0.1,5.4,0,8.1c-0.1,1.6,0.6,2.4,2.6,3c3,1,5.8,2.2,9,3.5
				c0-14.1,0-28,0-42.1c-3.7,1.5-7.3,2.8-10.9,4.3c-0.4,0.2-0.6,0.9-0.7,1.3c0,2.5,0,4.9,0,7.4c0,0.5,0,0.9,0,1.6c-4.8,0-9.3,0-14,0
				C-84.8,122-84.8,126.2-84.8,130.6z"/>
		</g>
	</g>
	<g id="MbM4d1_18_">
		<g id="XMLID_3_">
			<path id="XMLID_6_" class="st2" d="M-76.3,150.1c4.8-0.4,9.7,0.9,14.3-1.3c4.5-2.2,7.8-5.2,8.3-10.3c0.3-3.1,0.2-6.2,0.6-9.3
				c0.2-1.8,0.9-3.6,1.6-5.3c0.2-0.7,0.8-1.5-0.2-1.9c-0.6-0.3-1.6-0.5-2-0.2c-0.9,0.5-1.8,1.3-2.1,2.2c-1,2.8-1.8,5.8-2.7,8.6
				c-0.2,0.7-0.9,1.7-1.5,1.8c-1,0.2-1.6-0.8-1.9-1.8c-0.9-3.1-0.2-6.1,0.1-9.2c0.7-5.8,4.6-9.6,9.1-12.8c0.6-0.5,1.3-1,1.7-1.7
				c0.2-0.4,0.2-1.1,0-1.5c-0.2-0.3-0.9-0.4-1.3-0.3c-0.6,0.1-1.1,0.4-1.7,0.7c-4,2-7.4,4.8-10.3,8.2c-1,1.2-1.5,2.8-1.9,4.3
				c-2.4,7.8-4.5,15.7-6.9,23.6C-73.9,146.1-75.3,148-76.3,150.1z"/>
			<path id="XMLID_5_" class="st2" d="M-60.8,122.6c3.7-1.5,7.3-2.9,10.9-4.4c0.5-0.2,1-0.4,1.2-0.8c0.3-0.6,0.3-1.4,0.4-2.1
				c-0.6,0-1.3-0.3-1.8-0.1c-2.9,0.9-5.8,2-8.6,3c-0.4,0.1-0.8,0.5-1,0.9c-0.6,1.1-1,2.2-1.5,3.3C-61,122.5-60.9,122.5-60.8,122.6z"
				/>
			<path id="XMLID_4_" class="st2" d="M-58.2,117.2c1.8-0.8,3.7-1.5,5.5-2.3c1.2-0.5,2.4-1.1,3.5-1.8c0.9-0.6,1.5-1.5,2.1-2.4
				c0.1-0.2-0.1-1-0.5-1.3c-0.2-0.2-0.9-0.1-1.2,0c-3.9,1.6-6.9,4.4-9.7,7.3C-58.4,116.8-58.3,117-58.2,117.2z"/>
		</g>
	</g>
</g>
</svg>
